<svg width="301" height="309" viewBox="0 0 301 309" fill="none" xmlns="http://www.w3.org/2000/svg">
<path d="M136.973 10.9385L142.974 1.63135H144.291V4.10194H143.435L139.136 10.7499V10.8631H147.396V12.617H136.973V10.9385ZM143.576 12.1172L143.586 11.344V1.63135H145.552V15.2856H143.576V12.1172Z" fill="black"/>
<path d="M136.973 10.9385L142.974 1.63135H144.291V4.10194H143.435L139.136 10.7499V10.8631H147.396V12.617H136.973V10.9385ZM143.576 12.1172L143.586 11.344V1.63135H145.552V15.2856H143.576V12.1172Z" fill="black" fill-opacity="0.2"/>
<path d="M155.128 9.9484H153.369V6.93087H155.128V9.9484ZM162.936 9.90125H161.149V0H162.936V9.90125ZM148.873 6.22364C150.93 6.23621 152.874 6.21735 154.705 6.16706C156.536 6.11048 158.264 5.99733 159.888 5.82759L159.992 6.96859C158.317 7.20119 156.568 7.35521 154.743 7.43065C152.918 7.50609 151.027 7.53752 149.07 7.52495L148.873 6.22364ZM162.936 14.1258H153.228V15.8703H151.469V12.9188H161.168V11.7401H151.394V10.4765H162.936V14.1258ZM163.435 16.719H151.469V15.4271H163.435V16.719ZM161.732 9.10915H157.856V7.96815H161.732V9.10915ZM154.347 0.292323C155.175 0.292323 155.906 0.399193 156.539 0.612934C157.179 0.820389 157.674 1.11585 158.026 1.49933C158.377 1.87652 158.552 2.32286 158.552 2.83836C158.552 3.35385 158.377 3.80334 158.026 4.18681C157.681 4.57029 157.188 4.86261 156.549 5.06378C155.915 5.26495 155.182 5.36553 154.347 5.36553C153.501 5.36553 152.761 5.26495 152.127 5.06378C151.494 4.86261 151.002 4.57029 150.651 4.18681C150.299 3.80334 150.124 3.35385 150.124 2.83836C150.124 2.32286 150.299 1.87652 150.651 1.49933C151.002 1.11585 151.494 0.820389 152.127 0.612934C152.767 0.399193 153.507 0.292323 154.347 0.292323ZM154.347 1.50876C153.839 1.50876 153.391 1.5622 153.002 1.66907C152.62 1.77594 152.325 1.92996 152.118 2.13113C151.911 2.33229 151.808 2.56804 151.808 2.83836C151.808 3.10239 151.911 3.33499 152.118 3.53616C152.325 3.73104 152.62 3.88506 153.002 3.99822C153.391 4.10509 153.839 4.15852 154.347 4.15852C154.855 4.15852 155.301 4.10509 155.683 3.99822C156.072 3.88506 156.367 3.73104 156.568 3.53616C156.774 3.33499 156.878 3.10239 156.878 2.83836C156.878 2.56804 156.774 2.33229 156.568 2.13113C156.367 1.92996 156.072 1.77594 155.683 1.66907C155.301 1.5622 154.855 1.50876 154.347 1.50876Z" fill="black"/>
<path d="M155.128 9.9484H153.369V6.93087H155.128V9.9484ZM162.936 9.90125H161.149V0H162.936V9.90125ZM148.873 6.22364C150.93 6.23621 152.874 6.21735 154.705 6.16706C156.536 6.11048 158.264 5.99733 159.888 5.82759L159.992 6.96859C158.317 7.20119 156.568 7.35521 154.743 7.43065C152.918 7.50609 151.027 7.53752 149.07 7.52495L148.873 6.22364ZM162.936 14.1258H153.228V15.8703H151.469V12.9188H161.168V11.7401H151.394V10.4765H162.936V14.1258ZM163.435 16.719H151.469V15.4271H163.435V16.719ZM161.732 9.10915H157.856V7.96815H161.732V9.10915ZM154.347 0.292323C155.175 0.292323 155.906 0.399193 156.539 0.612934C157.179 0.820389 157.674 1.11585 158.026 1.49933C158.377 1.87652 158.552 2.32286 158.552 2.83836C158.552 3.35385 158.377 3.80334 158.026 4.18681C157.681 4.57029 157.188 4.86261 156.549 5.06378C155.915 5.26495 155.182 5.36553 154.347 5.36553C153.501 5.36553 152.761 5.26495 152.127 5.06378C151.494 4.86261 151.002 4.57029 150.651 4.18681C150.299 3.80334 150.124 3.35385 150.124 2.83836C150.124 2.32286 150.299 1.87652 150.651 1.49933C151.002 1.11585 151.494 0.820389 152.127 0.612934C152.767 0.399193 153.507 0.292323 154.347 0.292323ZM154.347 1.50876C153.839 1.50876 153.391 1.5622 153.002 1.66907C152.62 1.77594 152.325 1.92996 152.118 2.13113C151.911 2.33229 151.808 2.56804 151.808 2.83836C151.808 3.10239 151.911 3.33499 152.118 3.53616C152.325 3.73104 152.62 3.88506 153.002 3.99822C153.391 4.10509 153.839 4.15852 154.347 4.15852C154.855 4.15852 155.301 4.10509 155.683 3.99822C156.072 3.88506 156.367 3.73104 156.568 3.53616C156.774 3.33499 156.878 3.10239 156.878 2.83836C156.878 2.56804 156.774 2.33229 156.568 2.13113C156.367 1.92996 156.072 1.77594 155.683 1.66907C155.301 1.5622 154.855 1.50876 154.347 1.50876Z" fill="black" fill-opacity="0.2"/>
<path d="M7.66574 61.4933C8.16995 61.4933 8.62337 61.5895 9.02599 61.7819C9.43237 61.9743 9.74845 62.2439 9.97421 62.591C10.2 62.9342 10.3129 63.3246 10.3129 63.7621C10.3129 64.1997 10.2 64.5901 9.97421 64.9333C9.74845 65.2766 9.43237 65.5444 9.02599 65.7367C8.62337 65.9291 8.16995 66.0253 7.66574 66.0253C7.15776 66.0253 6.70057 65.9291 6.29419 65.7367C5.89157 65.5444 5.5755 65.2766 5.34597 64.9333C5.1202 64.5901 5.00732 64.1997 5.00732 63.7621C5.00732 63.3246 5.1202 62.9342 5.34597 62.591C5.5755 62.2439 5.89157 61.9743 6.29419 61.7819C6.70057 61.5895 7.15776 61.4933 7.66574 61.4933ZM7.66574 62.3873C7.36095 62.3873 7.08626 62.4439 6.84168 62.557C6.5971 62.6702 6.4052 62.8324 6.26597 63.0436C6.12675 63.251 6.05714 63.4906 6.05714 63.7621C6.05714 64.0337 6.12675 64.2751 6.26597 64.4864C6.4052 64.6976 6.5971 64.8617 6.84168 64.9786C7.08626 65.0955 7.36095 65.154 7.66574 65.154C7.97429 65.154 8.25085 65.0955 8.49543 64.9786C8.74001 64.8617 8.93192 64.6976 9.07114 64.4864C9.21037 64.2751 9.27998 64.0337 9.27998 63.7621C9.27998 63.4906 9.21037 63.251 9.07114 63.0436C8.93192 62.8324 8.74001 62.6702 8.49543 62.557C8.25085 62.4439 7.97429 62.3873 7.66574 62.3873ZM13.1858 66.3138H12.119V61.1426H13.1858V66.3138ZM13.1858 69.3238H7.61494V70.7609H6.56511V68.5317H12.1247V67.6265H6.54254V66.7778H13.1858V69.3238ZM13.5244 71.157H6.56511V70.3026H13.5244V71.157Z" fill="black"/>
<path d="M55.4546 67.1229H54.3992V65.3124H55.4546V67.1229ZM60.1393 67.0946H59.0669V61.1539H60.1393V67.0946ZM51.7012 64.8881C52.9354 64.8956 54.1019 64.8843 55.2006 64.8541C56.2994 64.8202 57.336 64.7523 58.3106 64.6504L58.3727 65.335C57.368 65.4746 56.3182 65.567 55.2232 65.6123C54.1282 65.6575 52.9938 65.6764 51.8198 65.6688L51.7012 64.8881ZM60.1393 69.6293H54.3145V70.676H53.259V68.9051H59.0782V68.1979H53.2139V67.4398H60.1393V69.6293ZM60.4385 71.1852H53.259V70.4101H60.4385V71.1852ZM59.4169 66.6194H57.0914V65.9348H59.4169V66.6194ZM54.9862 61.3293C55.4828 61.3293 55.9212 61.3934 56.3013 61.5216C56.6851 61.6461 56.9823 61.8234 57.193 62.0535C57.4038 62.2798 57.5091 62.5476 57.5091 62.8569C57.5091 63.1662 57.4038 63.4359 57.193 63.666C56.9861 63.896 56.6907 64.0714 56.3069 64.1921C55.9269 64.3128 55.4866 64.3732 54.9862 64.3732C54.4782 64.3732 54.0342 64.3128 53.6541 64.1921C53.2741 64.0714 52.9787 63.896 52.768 63.666C52.5573 63.4359 52.4519 63.1662 52.4519 62.8569C52.4519 62.5476 52.5573 62.2798 52.768 62.0535C52.9787 61.8234 53.2741 61.6461 53.6541 61.5216C54.0379 61.3934 54.4819 61.3293 54.9862 61.3293ZM54.9862 62.0591C54.6814 62.0591 54.4123 62.0912 54.179 62.1553C53.9495 62.2194 53.7727 62.3118 53.6485 62.4325C53.5243 62.5532 53.4622 62.6947 53.4622 62.8569C53.4622 63.0153 53.5243 63.1549 53.6485 63.2756C53.7727 63.3925 53.9495 63.4849 54.179 63.5528C54.4123 63.6169 54.6814 63.649 54.9862 63.649C55.2909 63.649 55.5581 63.6169 55.7876 63.5528C56.0209 63.4849 56.1978 63.3925 56.3182 63.2756C56.4424 63.1549 56.5044 63.0153 56.5044 62.8569C56.5044 62.6947 56.4424 62.5532 56.3182 62.4325C56.1978 62.3118 56.0209 62.2194 55.7876 62.1553C55.5581 62.0912 55.2909 62.0591 54.9862 62.0591Z" fill="black"/>
<path d="M102.29 68.8259H101.212V67.1682H102.29V68.8259ZM106.579 71.2814H105.501V61.1426H106.579V71.2814ZM108.098 66.2969H106.235V65.4029H108.098V66.2969ZM98.525 68.5261C99.7893 68.5261 100.941 68.5091 101.979 68.4751C103.018 68.4374 104 68.3507 104.926 68.2149L104.993 69.0183C104.32 69.1352 103.618 69.2239 102.888 69.2842C102.158 69.3408 101.467 69.3785 100.817 69.3974C100.166 69.4162 99.4563 69.4257 98.6887 69.4257L98.525 68.5261ZM104.779 63.2077H98.7113V62.3477H104.779V63.2077ZM101.759 63.7395C102.233 63.7395 102.653 63.8187 103.018 63.9771C103.383 64.1318 103.669 64.3506 103.876 64.6335C104.086 64.9163 104.192 65.2483 104.192 65.6292C104.192 65.9989 104.086 66.3252 103.876 66.608C103.669 66.8872 103.383 67.1059 103.018 67.2644C102.653 67.4228 102.233 67.502 101.759 67.502C101.285 67.502 100.864 67.4228 100.495 67.2644C100.126 67.1059 99.8401 66.8872 99.6369 66.608C99.4375 66.3252 99.3378 65.9989 99.3378 65.6292C99.3378 65.2483 99.4375 64.9163 99.6369 64.6335C99.8401 64.3506 100.126 64.1318 100.495 63.9771C100.864 63.8187 101.285 63.7395 101.759 63.7395ZM101.759 64.5599C101.481 64.5599 101.234 64.6052 101.02 64.6957C100.809 64.7824 100.643 64.9069 100.523 65.0691C100.403 65.2275 100.342 65.4142 100.342 65.6292C100.342 65.8367 100.401 66.0215 100.517 66.1837C100.634 66.3421 100.8 66.4628 101.014 66.5458C101.232 66.625 101.481 66.6646 101.759 66.6646C102.038 66.6646 102.282 66.625 102.493 66.5458C102.707 66.4628 102.873 66.3421 102.99 66.1837C103.106 66.0215 103.165 65.8367 103.165 65.6292C103.165 65.4142 103.106 65.2275 102.99 65.0691C102.873 64.9069 102.707 64.7824 102.493 64.6957C102.282 64.6052 102.038 64.5599 101.759 64.5599ZM102.29 62.9361H101.212V61.1765H102.29V62.9361Z" fill="black"/>
<path d="M150.575 62.0365C150.575 62.6626 150.391 63.2397 150.022 63.7678C149.653 64.2959 149.153 64.7353 148.521 65.0861C147.892 65.4331 147.2 65.6669 146.444 65.7877L146.015 64.922C146.669 64.8353 147.273 64.6485 147.827 64.3619C148.38 64.0752 148.818 63.7282 149.142 63.3208C149.469 62.9135 149.633 62.4854 149.633 62.0365V61.4877H150.575V62.0365ZM150.745 62.0365C150.745 62.4816 150.908 62.9097 151.236 63.3208C151.567 63.7282 152.011 64.0752 152.568 64.3619C153.128 64.6485 153.732 64.8353 154.379 64.922L153.956 65.7877C153.196 65.6669 152.502 65.4312 151.873 65.0804C151.245 64.7296 150.745 64.2902 150.372 63.7621C150 63.2341 149.813 62.6589 149.813 62.0365V61.4877H150.745V62.0365ZM150.694 71.2814H149.638V67.4624H150.694V71.2814ZM154.797 67.683H145.574V66.7891H154.797V67.683Z" fill="black"/>
<path d="M200.548 65.0408H193.679V61.5669H200.548V65.0408ZM194.729 64.1865H199.493V62.4156H194.729V64.1865ZM201.722 67.0946H192.5V66.229H201.722V67.0946ZM197.642 66.5345H196.569V64.8371H197.642V66.5345ZM200.588 71.2814H199.516V68.9051H193.521V68.0508H200.588V71.2814Z" fill="black"/>
<path d="M247.124 62.54H240.582V61.6631H247.124V62.54ZM248.682 66.2403H239.425V65.3633H248.682V66.2403ZM247.508 62.4382C247.508 63.0229 247.489 63.5528 247.451 64.0281C247.414 64.5033 247.325 65.0465 247.186 65.6575L246.114 65.6066C246.219 65.1842 246.294 64.7881 246.339 64.4185C246.385 64.045 246.413 63.7188 246.424 63.4396C246.435 63.1568 246.441 62.8229 246.441 62.4382V61.6631H247.508V62.4382ZM247.525 71.157H240.548V67.5303H247.525V71.157ZM241.609 70.2857H246.464V68.3733H241.609V70.2857Z" fill="black"/>
<path d="M294.563 67.2021H287.508V66.3421H294.563V67.2021ZM295.607 70.065H286.351V69.188H295.607V70.065ZM291.498 69.5784H290.431V66.7778H291.498V69.5784ZM294.461 62.806H288.603V66.6759H287.508V61.929H294.461V62.806ZM294.236 64.9729H288.27V64.1129H294.236V64.9729Z" fill="black"/>
<path d="M4.79457 115.879C3.96487 115.879 3.21984 115.737 2.55947 115.454C1.8991 115.171 1.37983 114.775 1.00167 114.266C0.623507 113.751 0.420315 113.16 0.392094 112.492H2.27161C2.29983 112.837 2.42683 113.146 2.6526 113.417C2.87836 113.689 3.17751 113.898 3.55002 114.045C3.92254 114.192 4.33457 114.266 4.7861 114.266C5.27151 114.266 5.71175 114.181 6.10685 114.011C6.50194 113.836 6.80673 113.601 7.02121 113.307C7.23569 113.007 7.34293 112.662 7.34293 112.272C7.34293 111.859 7.23569 111.494 7.02121 111.177C6.80673 110.86 6.49065 110.614 6.07298 110.438C5.66095 110.263 5.16426 110.175 4.58291 110.175H3.53309V108.656H4.58291C5.04574 108.656 5.45776 108.574 5.81899 108.41C6.18022 108.246 6.45961 108.017 6.65715 107.723C6.8547 107.429 6.95065 107.089 6.94501 106.704C6.95065 106.331 6.86599 106 6.69102 105.711C6.51605 105.423 6.26771 105.202 5.94599 105.049C5.62427 104.891 5.25175 104.812 4.82844 104.812C4.41076 104.812 4.02414 104.885 3.66855 105.032C3.31297 105.18 3.02229 105.389 2.79652 105.66C2.5764 105.932 2.45787 106.252 2.44094 106.619H0.646084C0.674305 105.963 0.874672 105.38 1.24719 104.871C1.62535 104.356 2.12769 103.957 2.75419 103.675C3.38634 103.392 4.08058 103.25 4.8369 103.25C5.62144 103.25 6.31004 103.4 6.90268 103.7C7.50096 103.994 7.96097 104.396 8.28269 104.905C8.60441 105.414 8.75962 105.977 8.74833 106.594C8.75962 107.047 8.67496 107.462 8.49434 107.842C8.31937 108.215 8.06538 108.529 7.73238 108.784C7.40501 109.033 7.02121 109.211 6.58096 109.318V109.412C7.13409 109.485 7.6082 109.658 8.0033 109.929C8.40404 110.195 8.70882 110.532 8.91766 110.939C9.12649 111.347 9.22527 111.811 9.21398 112.331C9.22527 112.999 9.03901 113.604 8.6552 114.147C8.27139 114.685 7.74084 115.109 7.06354 115.42C6.38623 115.726 5.62991 115.879 4.79457 115.879Z" fill="#C2C2CD"/>
<path d="M15.5552 115.879C14.6127 115.879 13.8055 115.632 13.1339 115.14C12.4622 114.648 11.9486 113.929 11.593 112.985C11.2374 112.04 11.0596 110.9 11.0596 109.564C11.0596 108.24 11.2374 107.106 11.593 106.161C11.9486 105.216 12.465 104.495 13.1423 103.997C13.8196 103.499 14.6239 103.25 15.5552 103.25C16.4865 103.25 17.2908 103.499 17.9681 103.997C18.6454 104.495 19.1619 105.216 19.5175 106.161C19.873 107.106 20.0508 108.24 20.0508 109.564C20.0508 110.9 19.873 112.04 19.5175 112.985C19.1675 113.929 18.6539 114.648 17.9766 115.14C17.3049 115.632 16.4978 115.879 15.5552 115.879ZM15.5552 114.275C16.1027 114.275 16.574 114.093 16.9691 113.731C17.3698 113.369 17.6746 112.837 17.8835 112.136C18.0923 111.429 18.1939 110.571 18.1883 109.564C18.1883 108.557 18.0838 107.7 17.875 106.993C17.6662 106.286 17.3642 105.748 16.9691 105.38C16.574 105.013 16.1027 104.829 15.5552 104.829C15.0077 104.829 14.5365 105.013 14.1414 105.38C13.7463 105.748 13.4415 106.286 13.227 106.993C13.0125 107.7 12.9053 108.557 12.9053 109.564C12.9053 110.571 13.0097 111.429 13.2185 112.136C13.4274 112.837 13.7322 113.369 14.1329 113.731C14.5336 114.093 15.0077 114.275 15.5552 114.275Z" fill="#C2C2CD"/>
<path d="M53.047 115.879C52.2173 115.879 51.4722 115.737 50.8119 115.454C50.1515 115.171 49.6322 114.775 49.2541 114.266C48.8759 113.751 48.6727 113.16 48.6445 112.492H50.524C50.5522 112.837 50.6792 113.146 50.905 113.417C51.1308 113.689 51.4299 113.898 51.8024 114.045C52.1749 114.192 52.587 114.266 53.0385 114.266C53.5239 114.266 53.9641 114.181 54.3592 114.011C54.7543 113.836 55.0591 113.601 55.2736 113.307C55.4881 113.007 55.5953 112.662 55.5953 112.272C55.5953 111.859 55.4881 111.494 55.2736 111.177C55.0591 110.86 54.7431 110.614 54.3254 110.438C53.9134 110.263 53.4167 110.175 52.8353 110.175H51.7855V108.656H52.8353C53.2981 108.656 53.7102 108.574 54.0714 108.41C54.4326 108.246 54.712 108.017 54.9096 107.723C55.1071 107.429 55.2031 107.089 55.1974 106.704C55.2031 106.331 55.1184 106 54.9434 105.711C54.7684 105.423 54.5201 105.202 54.1984 105.049C53.8767 104.891 53.5042 104.812 53.0808 104.812C52.6632 104.812 52.2765 104.885 51.921 105.032C51.5654 105.18 51.2747 105.389 51.0489 105.66C50.8288 105.932 50.7103 106.252 50.6933 106.619H48.8985C48.9267 105.963 49.1271 105.38 49.4996 104.871C49.8778 104.356 50.3801 103.957 51.0066 103.675C51.6387 103.392 52.333 103.25 53.0893 103.25C53.8738 103.25 54.5624 103.4 55.1551 103.7C55.7534 103.994 56.2134 104.396 56.5351 104.905C56.8568 105.414 57.012 105.977 57.0007 106.594C57.012 107.047 56.9274 107.462 56.7467 107.842C56.5718 108.215 56.3178 108.529 55.9848 108.784C55.6574 109.033 55.2736 109.211 54.8334 109.318V109.412C55.3865 109.485 55.8606 109.658 56.2557 109.929C56.6564 110.195 56.9612 110.532 57.1701 110.939C57.3789 111.347 57.4777 111.811 57.4664 112.331C57.4777 112.999 57.2914 113.604 56.9076 114.147C56.5238 114.685 55.9932 115.109 55.3159 115.42C54.6386 115.726 53.8823 115.879 53.047 115.879Z" fill="#C2C2CD"/>
<path d="M64.1971 115.709H62.3176V105.296H62.2498L59.329 107.214V105.423L62.3684 103.42H64.1971V115.709Z" fill="#C2C2CD"/>
<path d="M105.566 115.709H103.687V105.296H103.619L100.698 107.214V105.423L103.738 103.42H105.566V115.709Z" fill="black"/>
<path d="M146.419 114.351L150.678 110.048C151.191 109.516 151.587 109.086 151.863 108.758C152.14 108.43 152.346 108.107 152.481 107.791C152.622 107.468 152.693 107.134 152.693 106.789C152.693 106.399 152.594 106.054 152.396 105.754C152.199 105.454 151.928 105.222 151.584 105.058C151.239 104.894 150.853 104.812 150.424 104.812C149.978 104.812 149.586 104.902 149.247 105.083C148.914 105.259 148.654 105.513 148.468 105.847C148.287 106.175 148.197 106.554 148.197 106.984H146.428C146.428 106.249 146.6 105.598 146.944 105.032C147.288 104.467 147.765 104.028 148.375 103.717C148.99 103.406 149.687 103.25 150.466 103.25C151.239 103.25 151.928 103.403 152.532 103.708C153.136 104.008 153.607 104.424 153.946 104.956C154.29 105.482 154.462 106.073 154.462 106.73C154.462 107.199 154.375 107.652 154.2 108.088C154.025 108.523 153.728 109.004 153.311 109.53C152.893 110.057 152.295 110.704 151.516 111.474L149.018 114.011V114.105H154.665V115.709H146.428L146.419 114.351Z" fill="black"/>
<path d="M197.296 115.879C196.467 115.879 195.721 115.737 195.061 115.454C194.401 115.171 193.881 114.775 193.503 114.266C193.125 113.751 192.922 113.16 192.894 112.492H194.773C194.801 112.837 194.928 113.146 195.154 113.417C195.38 113.689 195.679 113.898 196.052 114.045C196.424 114.192 196.836 114.266 197.288 114.266C197.773 114.266 198.213 114.181 198.608 114.011C199.004 113.836 199.308 113.601 199.523 113.307C199.737 113.007 199.845 112.662 199.845 112.272C199.845 111.859 199.737 111.494 199.523 111.177C199.308 110.86 198.992 110.614 198.575 110.438C198.163 110.263 197.666 110.175 197.085 110.175H196.035V108.656H197.085C197.547 108.656 197.959 108.574 198.321 108.41C198.682 108.246 198.961 108.017 199.159 107.723C199.356 107.429 199.452 107.089 199.447 106.704C199.452 106.331 199.368 106 199.193 105.711C199.018 105.423 198.769 105.202 198.448 105.049C198.126 104.891 197.753 104.812 197.33 104.812C196.912 104.812 196.526 104.885 196.17 105.032C195.815 105.18 195.524 105.389 195.298 105.66C195.078 105.932 194.96 106.252 194.943 106.619H193.148C193.176 105.963 193.376 105.38 193.749 104.871C194.127 104.356 194.629 103.957 195.256 103.675C195.888 103.392 196.582 103.25 197.339 103.25C198.123 103.25 198.812 103.4 199.404 103.7C200.003 103.994 200.463 104.396 200.784 104.905C201.106 105.414 201.261 105.977 201.25 106.594C201.261 107.047 201.177 107.462 200.996 107.842C200.821 108.215 200.567 108.529 200.234 108.784C199.907 109.033 199.523 109.211 199.083 109.318V109.412C199.636 109.485 200.11 109.658 200.505 109.929C200.906 110.195 201.21 110.532 201.419 110.939C201.628 111.347 201.727 111.811 201.716 112.331C201.727 112.999 201.541 113.604 201.157 114.147C200.773 114.685 200.242 115.109 199.565 115.42C198.888 115.726 198.132 115.879 197.296 115.879Z" fill="black"/>
<path d="M239.394 111.796L244.795 103.42H245.98V105.643H245.21L241.341 111.627V111.729H248.774V113.307H239.394V111.796ZM245.337 112.857L245.345 112.161V103.42H247.115V115.709H245.337V112.857Z" fill="black"/>
<path d="M290.863 115.879C290.101 115.879 289.407 115.734 288.78 115.446C288.16 115.152 287.666 114.747 287.299 114.232C286.938 113.717 286.743 113.137 286.715 112.492H288.518C288.558 112.843 288.685 113.154 288.899 113.426C289.119 113.697 289.399 113.915 289.737 114.079C290.081 114.238 290.457 114.317 290.863 114.317C291.349 114.317 291.783 114.207 292.167 113.986C292.556 113.765 292.861 113.463 293.081 113.078C293.302 112.688 293.412 112.255 293.412 111.779C293.412 111.276 293.299 110.832 293.073 110.447C292.853 110.057 292.54 109.748 292.133 109.522C291.732 109.296 291.281 109.182 290.779 109.182C290.271 109.171 289.836 109.253 289.475 109.429C289.113 109.604 288.828 109.881 288.62 110.26H286.867L287.663 103.42H294.605V105.024H289.212L288.789 108.453H288.899C289.17 108.209 289.509 108.011 289.915 107.859C290.327 107.706 290.759 107.629 291.21 107.629C291.972 107.629 292.658 107.805 293.268 108.156C293.883 108.501 294.363 108.987 294.707 109.615C295.057 110.238 295.229 110.942 295.223 111.729C295.229 112.521 295.043 113.233 294.665 113.867C294.292 114.495 293.773 114.987 293.107 115.344C292.446 115.7 291.699 115.879 290.863 115.879Z" fill="black"/>
<path d="M10.2553 164.159C9.42564 164.148 8.66367 163.955 7.96943 163.582C7.28084 163.208 6.71642 162.583 6.27617 161.706C5.84157 160.829 5.62427 159.678 5.62427 158.252C5.62427 156.843 5.81899 155.635 6.20844 154.628C6.59789 153.615 7.15102 152.846 7.86784 152.32C8.58465 151.794 9.43128 151.531 10.4077 151.531C11.1528 151.531 11.816 151.675 12.3973 151.963C12.9843 152.246 13.4612 152.642 13.8281 153.152C14.2006 153.661 14.4349 154.243 14.5308 154.9H12.6852C12.5949 154.555 12.4481 154.252 12.2449 153.992C12.0474 153.726 11.7934 153.522 11.4829 153.381C11.1725 153.239 10.8141 153.169 10.4077 153.169C9.78122 153.169 9.24502 153.344 8.79913 153.695C8.35324 154.04 8.01176 154.543 7.77471 155.205C7.53765 155.867 7.4163 156.662 7.41066 157.59H7.54612C7.77188 157.245 8.04281 156.948 8.35888 156.699C8.6806 156.45 9.04183 156.261 9.44257 156.13C9.84331 155.995 10.261 155.927 10.6956 155.927C11.418 155.927 12.0812 156.102 12.6852 156.453C13.2947 156.798 13.7717 157.276 14.116 157.887C14.4659 158.498 14.6409 159.191 14.6409 159.966C14.6409 160.759 14.4574 161.474 14.0906 162.114C13.7237 162.753 13.2072 163.254 12.5412 163.616C11.8752 163.978 11.1133 164.159 10.2553 164.159ZM10.2469 162.597C10.7323 162.597 11.1697 162.481 11.5591 162.249C11.9542 162.017 12.2647 161.703 12.4904 161.307C12.7218 160.906 12.8376 160.473 12.8376 160.009C12.8376 159.528 12.7275 159.092 12.5074 158.702C12.2872 158.312 11.9825 158.006 11.593 157.785C11.2036 157.559 10.7633 157.446 10.2723 157.446C9.79251 157.446 9.35226 157.565 8.95152 157.802C8.55079 158.034 8.23189 158.348 7.99483 158.744C7.76342 159.135 7.64207 159.559 7.63078 160.017C7.63642 160.464 7.75213 160.886 7.9779 161.282C8.20931 161.678 8.52256 161.998 8.91766 162.241C9.31275 162.479 9.75582 162.597 10.2469 162.597Z" fill="black"/>
<path d="M59.0496 153.389V153.304H52.7252V151.7H60.9799V153.364L55.5191 163.989H53.5803L59.0496 153.389Z" fill="black"/>
<path d="M103.712 164.159C102.843 164.159 102.064 164.012 101.376 163.718C100.693 163.418 100.159 163.008 99.7754 162.487C99.3973 161.961 99.2082 161.37 99.2082 160.713C99.2082 160.198 99.3182 159.717 99.5384 159.271C99.7641 158.824 100.072 158.456 100.461 158.167C100.856 157.873 101.291 157.692 101.765 157.624V157.548C101.359 157.452 100.997 157.273 100.681 157.013C100.365 156.753 100.117 156.43 99.9363 156.046C99.7613 155.661 99.6738 155.248 99.6738 154.806C99.6738 154.184 99.8488 153.624 100.199 153.126C100.554 152.623 101.037 152.232 101.646 151.955C102.262 151.672 102.95 151.531 103.712 151.531C104.474 151.531 105.163 151.672 105.778 151.955C106.393 152.232 106.876 152.623 107.226 153.126C107.581 153.624 107.759 154.184 107.759 154.806C107.759 155.248 107.666 155.661 107.48 156.046C107.299 156.43 107.051 156.753 106.735 157.013C106.424 157.273 106.063 157.452 105.651 157.548V157.624C106.131 157.692 106.563 157.873 106.946 158.167C107.336 158.456 107.646 158.824 107.878 159.271C108.109 159.717 108.225 160.198 108.225 160.713C108.225 161.37 108.03 161.961 107.641 162.487C107.257 163.008 106.723 163.418 106.04 163.718C105.358 164.012 104.581 164.159 103.712 164.159ZM103.712 162.614C104.237 162.614 104.697 162.529 105.092 162.36C105.487 162.19 105.792 161.95 106.007 161.638C106.221 161.327 106.328 160.974 106.328 160.577C106.328 160.153 106.215 159.777 105.99 159.449C105.764 159.115 105.451 158.855 105.05 158.668C104.655 158.476 104.209 158.379 103.712 158.379C103.216 158.379 102.767 158.476 102.366 158.668C101.965 158.855 101.652 159.115 101.426 159.449C101.206 159.777 101.102 160.153 101.113 160.577C101.102 160.974 101.203 161.327 101.418 161.638C101.632 161.95 101.937 162.19 102.332 162.36C102.727 162.529 103.187 162.614 103.712 162.614ZM103.712 156.92C104.136 156.92 104.517 156.838 104.855 156.674C105.2 156.509 105.465 156.28 105.651 155.986C105.837 155.686 105.93 155.35 105.93 154.976C105.93 154.597 105.837 154.263 105.651 153.975C105.47 153.681 105.211 153.454 104.872 153.296C104.533 153.137 104.147 153.058 103.712 153.058C103.278 153.058 102.888 153.137 102.544 153.296C102.205 153.454 101.943 153.681 101.757 153.975C101.576 154.263 101.486 154.597 101.486 154.976C101.486 155.35 101.582 155.686 101.773 155.986C101.971 156.28 102.236 156.509 102.569 156.674C102.902 156.838 103.283 156.92 103.712 156.92Z" fill="black"/>
<path d="M150.398 151.531C151.228 151.531 151.987 151.717 152.676 152.091C153.37 152.464 153.934 153.089 154.369 153.966C154.804 154.838 155.021 155.986 155.021 157.412C155.021 158.826 154.826 160.04 154.437 161.053C154.053 162.06 153.5 162.829 152.777 163.361C152.061 163.893 151.211 164.159 150.229 164.159C149.495 164.159 148.835 164.015 148.248 163.726C147.661 163.432 147.181 163.03 146.809 162.521C146.436 162.012 146.202 161.426 146.106 160.764H147.952C148.036 161.115 148.18 161.423 148.383 161.689C148.587 161.95 148.843 162.153 149.154 162.3C149.47 162.447 149.828 162.521 150.229 162.521C150.856 162.521 151.395 162.346 151.846 161.995C152.298 161.638 152.642 161.126 152.879 160.459C153.122 159.791 153.243 158.99 153.243 158.057H153.091C152.871 158.402 152.6 158.699 152.278 158.948C151.956 159.197 151.598 159.389 151.203 159.525C150.808 159.655 150.393 159.72 149.958 159.72C149.236 159.72 148.57 159.548 147.96 159.203C147.356 158.852 146.879 158.371 146.529 157.76C146.179 157.149 146.002 156.461 145.996 155.698C145.996 154.911 146.179 154.201 146.546 153.567C146.913 152.934 147.43 152.433 148.096 152.065C148.767 151.697 149.535 151.519 150.398 151.531ZM150.407 153.092C149.921 153.092 149.481 153.208 149.086 153.44C148.691 153.672 148.381 153.986 148.155 154.382C147.929 154.773 147.816 155.2 147.816 155.664C147.822 156.128 147.935 156.555 148.155 156.945C148.375 157.336 148.677 157.644 149.061 157.87C149.45 158.097 149.885 158.21 150.365 158.21C150.844 158.21 151.285 158.091 151.685 157.853C152.092 157.61 152.411 157.29 152.642 156.894C152.879 156.498 152.998 156.079 152.998 155.638C152.998 155.191 152.885 154.773 152.659 154.382C152.433 153.992 152.123 153.681 151.728 153.449C151.338 153.211 150.898 153.092 150.407 153.092Z" fill="black"/>
<path d="M193.791 163.989H191.912V153.576H191.844L188.923 155.494V153.703L191.962 151.7H193.791V163.989Z" fill="black"/>
<path d="M201.174 164.159C200.231 164.159 199.424 163.913 198.752 163.421C198.081 162.928 197.567 162.21 197.212 161.265C196.856 160.32 196.678 159.18 196.678 157.845C196.678 156.521 196.856 155.386 197.212 154.442C197.567 153.497 198.084 152.775 198.761 152.277C199.438 151.78 200.242 151.531 201.174 151.531C202.105 151.531 202.909 151.78 203.587 152.277C204.264 152.775 204.78 153.497 205.136 154.442C205.492 155.386 205.669 156.521 205.669 157.845C205.669 159.18 205.492 160.32 205.136 161.265C204.786 162.21 204.272 162.928 203.595 163.421C202.923 163.913 202.116 164.159 201.174 164.159ZM201.174 162.555C201.721 162.555 202.193 162.374 202.588 162.012C202.988 161.65 203.293 161.118 203.502 160.416C203.711 159.709 203.812 158.852 203.807 157.845C203.807 156.838 203.702 155.98 203.494 155.273C203.285 154.566 202.983 154.029 202.588 153.661C202.193 153.293 201.721 153.109 201.174 153.109C200.626 153.109 200.155 153.293 199.76 153.661C199.365 154.029 199.06 154.566 198.846 155.273C198.631 155.98 198.524 156.838 198.524 157.845C198.524 158.852 198.628 159.709 198.837 160.416C199.046 161.118 199.351 161.65 199.751 162.012C200.152 162.374 200.626 162.555 201.174 162.555Z" fill="black"/>
<path d="M242.044 163.989H240.164V153.576H240.096L237.175 155.494V153.703L240.215 151.7H242.044V163.989Z" fill="black"/>
<path d="M249.816 163.989H247.936V153.576H247.868L244.947 155.494V153.703L247.987 151.7H249.816V163.989Z" fill="black"/>
<path d="M287.561 163.989H285.682V153.576H285.614L282.693 155.494V153.703L285.733 151.7H287.561V163.989Z" fill="black"/>
<path d="M290.668 162.631L294.927 158.328C295.441 157.797 295.836 157.367 296.112 157.038C296.389 156.71 296.595 156.388 296.73 156.071C296.871 155.749 296.942 155.415 296.942 155.07C296.942 154.679 296.843 154.334 296.646 154.034C296.448 153.734 296.177 153.502 295.833 153.338C295.489 153.174 295.102 153.092 294.673 153.092C294.227 153.092 293.835 153.183 293.496 153.364C293.163 153.539 292.904 153.794 292.717 154.128C292.537 154.456 292.446 154.835 292.446 155.265H290.677C290.677 154.529 290.849 153.879 291.193 153.313C291.538 152.747 292.015 152.309 292.624 151.997C293.239 151.686 293.936 151.531 294.715 151.531C295.489 151.531 296.177 151.683 296.781 151.989C297.385 152.289 297.856 152.705 298.195 153.236C298.539 153.763 298.711 154.354 298.711 155.01C298.711 155.48 298.624 155.932 298.449 156.368C298.274 156.804 297.978 157.285 297.56 157.811C297.142 158.337 296.544 158.985 295.765 159.754L293.268 162.292V162.385H298.915V163.989H290.677L290.668 162.631Z" fill="black"/>
<path d="M6.57249 212.27H4.69297V201.856H4.62524L1.70437 203.774V201.984L4.74377 199.981H6.57249V212.27Z" fill="black"/>
<path d="M14.0313 212.439C13.2016 212.439 12.4566 212.298 11.7962 212.015C11.1358 211.732 10.6166 211.336 10.2384 210.827C9.86024 210.312 9.65705 209.721 9.62883 209.053H11.5083C11.5366 209.398 11.6636 209.707 11.8893 209.978C12.1151 210.25 12.4142 210.459 12.7868 210.606C13.1593 210.753 13.5713 210.827 14.0228 210.827C14.5082 210.827 14.9485 210.742 15.3436 210.572C15.7387 210.397 16.0435 210.162 16.2579 209.868C16.4724 209.568 16.5797 209.223 16.5797 208.832C16.5797 208.419 16.4724 208.054 16.2579 207.738C16.0435 207.421 15.7274 207.175 15.3097 206.999C14.8977 206.824 14.401 206.736 13.8196 206.736H12.7698V205.217H13.8196C14.2825 205.217 14.6945 205.135 15.0557 204.971C15.417 204.807 15.6963 204.578 15.8939 204.283C16.0914 203.989 16.1874 203.65 16.1817 203.265C16.1874 202.892 16.1027 202.561 15.9278 202.272C15.7528 201.984 15.5044 201.763 15.1827 201.61C14.861 201.452 14.4885 201.372 14.0652 201.372C13.6475 201.372 13.2609 201.446 12.9053 201.593C12.5497 201.74 12.259 201.95 12.0333 202.221C11.8131 202.493 11.6946 202.812 11.6777 203.18H9.88282C9.91104 202.524 10.1114 201.941 10.4839 201.432C10.8621 200.917 11.3644 200.518 11.9909 200.235C12.6231 199.952 13.3173 199.811 14.0736 199.811C14.8582 199.811 15.5468 199.961 16.1394 200.261C16.7377 200.555 17.1977 200.957 17.5194 201.466C17.8411 201.975 17.9963 202.538 17.9851 203.155C17.9963 203.607 17.9117 204.023 17.7311 204.402C17.5561 204.776 17.3021 205.09 16.9691 205.344C16.6417 205.593 16.2579 205.771 15.8177 205.879V205.972C16.3708 206.046 16.8449 206.218 17.24 206.49C17.6408 206.756 17.9456 207.093 18.1544 207.5C18.3632 207.907 18.462 208.371 18.4507 208.892C18.462 209.559 18.2757 210.165 17.8919 210.708C17.5081 211.245 16.9776 211.67 16.3003 211.981C15.623 212.287 14.8666 212.439 14.0313 212.439Z" fill="black"/>
<path d="M53.2756 212.27H51.396V201.856H51.3283L48.4074 203.774V201.984L51.4468 199.981H53.2756V212.27Z" fill="black"/>
<path d="M56.1287 208.357L61.5302 199.981H62.7155V202.204H61.9451L58.076 208.187V208.289H65.5094V209.868H56.1287V208.357ZM62.072 209.418L62.0805 208.722V199.981H63.85V212.27H62.072V209.418Z" fill="black"/>
<path d="M100.309 212.27H98.4293V201.856H98.3616L95.4407 203.774V201.984L98.4801 199.981H100.309V212.27Z" fill="black"/>
<path d="M107.598 212.439C106.836 212.439 106.142 212.295 105.516 212.006C104.895 211.712 104.401 211.308 104.034 210.793C103.673 210.278 103.478 209.698 103.45 209.053H105.253C105.293 209.404 105.42 209.715 105.634 209.987C105.854 210.258 106.134 210.476 106.472 210.64C106.817 210.798 107.192 210.878 107.598 210.878C108.084 210.878 108.518 210.767 108.902 210.547C109.292 210.326 109.596 210.023 109.816 209.639C110.037 209.248 110.147 208.815 110.147 208.34C110.147 207.837 110.034 207.392 109.808 207.008C109.588 206.617 109.275 206.309 108.868 206.083C108.468 205.856 108.016 205.743 107.514 205.743C107.006 205.732 106.571 205.814 106.21 205.989C105.849 206.165 105.564 206.442 105.355 206.821H103.602L104.398 199.981H111.34V201.585H105.947L105.524 205.013H105.634C105.905 204.77 106.244 204.572 106.65 204.419C107.062 204.266 107.494 204.19 107.945 204.19C108.707 204.19 109.393 204.366 110.003 204.716C110.618 205.061 111.098 205.548 111.442 206.176C111.792 206.798 111.964 207.503 111.958 208.289C111.964 209.081 111.778 209.794 111.4 210.428C111.027 211.056 110.508 211.548 109.842 211.905C109.182 212.261 108.434 212.439 107.598 212.439Z" fill="black"/>
<path d="M146.953 212.27H145.073V201.856H145.005L142.085 203.774V201.984L145.124 199.981H146.953V212.27Z" fill="black"/>
<path d="M154.505 212.439C153.675 212.428 152.913 212.236 152.219 211.862C151.53 211.489 150.966 210.864 150.525 209.987C150.091 209.11 149.874 207.958 149.874 206.532C149.874 205.124 150.068 203.916 150.458 202.909C150.847 201.896 151.4 201.126 152.117 200.6C152.834 200.074 153.681 199.811 154.657 199.811C155.402 199.811 156.065 199.955 156.647 200.244C157.234 200.527 157.71 200.923 158.077 201.432C158.45 201.941 158.684 202.524 158.78 203.18H156.934C156.844 202.835 156.697 202.532 156.494 202.272C156.297 202.006 156.043 201.803 155.732 201.661C155.422 201.52 155.063 201.449 154.657 201.449C154.03 201.449 153.494 201.624 153.048 201.975C152.602 202.32 152.261 202.824 152.024 203.486C151.787 204.148 151.666 204.943 151.66 205.87H151.795C152.021 205.525 152.292 205.228 152.608 204.979C152.93 204.73 153.291 204.541 153.692 204.411C154.093 204.275 154.51 204.207 154.945 204.207C155.667 204.207 156.33 204.382 156.934 204.733C157.544 205.078 158.021 205.556 158.365 206.168C158.715 206.779 158.89 207.472 158.89 208.247C158.89 209.039 158.707 209.755 158.34 210.394C157.973 211.033 157.456 211.534 156.79 211.896C156.124 212.258 155.362 212.439 154.505 212.439ZM154.496 210.878C154.981 210.878 155.419 210.762 155.808 210.53C156.203 210.298 156.514 209.984 156.74 209.588C156.971 209.186 157.087 208.753 157.087 208.289C157.087 207.808 156.977 207.373 156.757 206.982C156.536 206.592 156.232 206.286 155.842 206.066C155.453 205.839 155.013 205.726 154.521 205.726C154.042 205.726 153.602 205.845 153.201 206.083C152.8 206.315 152.481 206.629 152.244 207.025C152.013 207.415 151.891 207.839 151.88 208.298C151.886 208.745 152.001 209.166 152.227 209.562C152.459 209.958 152.772 210.278 153.167 210.521C153.562 210.759 154.005 210.878 154.496 210.878Z" fill="black"/>
<path d="M194.291 212.27H192.411V201.856H192.343L189.423 203.774V201.984L192.462 199.981H194.291V212.27Z" fill="black"/>
<path d="M203.299 201.67V201.585H196.974V199.981H205.229V201.644L199.768 212.27H197.83L203.299 201.67Z" fill="black"/>
<path d="M240.57 212.27H238.691V201.856H238.623L235.702 203.774V201.984L238.742 199.981H240.57V212.27Z" fill="black"/>
<path d="M247.962 212.439C247.092 212.439 246.313 212.292 245.625 211.998C244.942 211.698 244.408 211.288 244.025 210.767C243.646 210.241 243.457 209.65 243.457 208.994C243.457 208.479 243.568 207.998 243.788 207.551C244.013 207.104 244.321 206.736 244.71 206.448C245.106 206.153 245.54 205.972 246.014 205.904V205.828C245.608 205.732 245.247 205.554 244.931 205.293C244.614 205.033 244.366 204.711 244.186 204.326C244.011 203.941 243.923 203.528 243.923 203.087C243.923 202.464 244.098 201.904 244.448 201.406C244.804 200.903 245.286 200.512 245.896 200.235C246.511 199.952 247.2 199.811 247.962 199.811C248.723 199.811 249.412 199.952 250.027 200.235C250.642 200.512 251.125 200.903 251.475 201.406C251.831 201.904 252.008 202.464 252.008 203.087C252.008 203.528 251.915 203.941 251.729 204.326C251.548 204.711 251.3 205.033 250.984 205.293C250.674 205.554 250.312 205.732 249.9 205.828V205.904C250.38 205.972 250.812 206.153 251.196 206.448C251.585 206.736 251.896 207.104 252.127 207.551C252.358 207.998 252.474 208.479 252.474 208.994C252.474 209.65 252.279 210.241 251.89 210.767C251.506 211.288 250.973 211.698 250.29 211.998C249.607 212.292 248.831 212.439 247.962 212.439ZM247.962 210.895C248.486 210.895 248.946 210.81 249.341 210.64C249.737 210.47 250.041 210.23 250.256 209.919C250.47 209.607 250.578 209.254 250.578 208.858C250.578 208.434 250.465 208.057 250.239 207.729C250.013 207.395 249.7 207.135 249.299 206.948C248.904 206.756 248.458 206.66 247.962 206.66C247.465 206.66 247.016 206.756 246.615 206.948C246.215 207.135 245.901 207.395 245.676 207.729C245.455 208.057 245.351 208.434 245.362 208.858C245.351 209.254 245.453 209.607 245.667 209.919C245.882 210.23 246.186 210.47 246.581 210.64C246.977 210.81 247.437 210.895 247.962 210.895ZM247.962 205.2C248.385 205.2 248.766 205.118 249.104 204.954C249.449 204.79 249.714 204.561 249.9 204.266C250.087 203.967 250.18 203.63 250.18 203.257C250.18 202.878 250.087 202.544 249.9 202.255C249.72 201.961 249.46 201.735 249.121 201.576C248.783 201.418 248.396 201.339 247.962 201.339C247.527 201.339 247.137 201.418 246.793 201.576C246.454 201.735 246.192 201.961 246.006 202.255C245.825 202.544 245.735 202.878 245.735 203.257C245.735 203.63 245.831 203.967 246.023 204.266C246.22 204.561 246.486 204.79 246.819 204.954C247.152 205.118 247.533 205.2 247.962 205.2Z" fill="black"/>
<path d="M287.316 212.27H285.436V201.856H285.369L282.448 203.774V201.984L285.487 199.981H287.316V212.27Z" fill="black"/>
<path d="M294.648 199.811C295.477 199.811 296.237 199.998 296.925 200.371C297.619 200.744 298.184 201.37 298.618 202.247C299.053 203.118 299.27 204.266 299.27 205.692C299.27 207.107 299.076 208.32 298.686 209.333C298.302 210.34 297.749 211.11 297.027 211.642C296.31 212.173 295.46 212.439 294.478 212.439C293.745 212.439 293.084 212.295 292.497 212.006C291.91 211.712 291.43 211.311 291.058 210.801C290.685 210.292 290.451 209.707 290.355 209.045H292.201C292.286 209.395 292.429 209.704 292.633 209.97C292.836 210.23 293.093 210.434 293.403 210.581C293.719 210.728 294.078 210.801 294.478 210.801C295.105 210.801 295.644 210.626 296.095 210.275C296.547 209.919 296.891 209.407 297.128 208.739C297.371 208.071 297.492 207.271 297.492 206.337H297.34C297.12 206.682 296.849 206.979 296.527 207.228C296.205 207.477 295.847 207.67 295.452 207.805C295.057 207.936 294.642 208.001 294.207 208.001C293.485 208.001 292.819 207.828 292.209 207.483C291.605 207.132 291.128 206.651 290.779 206.04C290.429 205.429 290.251 204.742 290.245 203.978C290.245 203.192 290.429 202.481 290.795 201.848C291.162 201.214 291.679 200.713 292.345 200.346C293.016 199.978 293.784 199.8 294.648 199.811ZM294.656 201.372C294.171 201.372 293.73 201.488 293.335 201.72C292.94 201.952 292.63 202.266 292.404 202.662C292.178 203.053 292.065 203.48 292.065 203.944C292.071 204.408 292.184 204.835 292.404 205.226C292.624 205.616 292.926 205.924 293.31 206.151C293.699 206.377 294.134 206.49 294.614 206.49C295.094 206.49 295.534 206.371 295.935 206.134C296.341 205.89 296.66 205.571 296.891 205.175C297.128 204.779 297.247 204.36 297.247 203.919C297.247 203.472 297.134 203.053 296.908 202.662C296.682 202.272 296.372 201.961 295.977 201.729C295.587 201.491 295.147 201.372 294.656 201.372Z" fill="black"/>
<path d="M0.705345 259.192L4.9639 254.889C5.47752 254.357 5.87261 253.927 6.14918 253.599C6.42574 253.271 6.63176 252.949 6.76722 252.632C6.90832 252.309 6.97888 251.975 6.97888 251.63C6.97888 251.24 6.8801 250.895 6.68256 250.595C6.48501 250.295 6.21409 250.063 5.86979 249.899C5.5255 249.735 5.13887 249.653 4.70991 249.653C4.26402 249.653 3.87174 249.743 3.53309 249.924C3.20008 250.1 2.94045 250.354 2.75419 250.688C2.57358 251.016 2.48327 251.395 2.48327 251.825H0.713814C0.713814 251.09 0.885962 250.439 1.23026 249.874C1.57455 249.308 2.05149 248.869 2.66106 248.558C3.27628 248.247 3.97334 248.091 4.75224 248.091C5.5255 248.091 6.21409 248.244 6.81802 248.55C7.42195 248.849 7.89324 249.265 8.23189 249.797C8.57618 250.323 8.74833 250.915 8.74833 251.571C8.74833 252.04 8.66085 252.493 8.48588 252.929C8.31091 253.364 8.01459 253.845 7.59692 254.372C7.17924 254.898 6.58096 255.546 5.80206 256.315L3.3045 258.853V258.946H8.95152V260.55H0.713814L0.705345 259.192Z" fill="black"/>
<path d="M15.2928 260.72C14.3502 260.72 13.5431 260.474 12.8714 259.981C12.1998 259.489 11.6861 258.77 11.3306 257.826C10.975 256.881 10.7972 255.741 10.7972 254.405C10.7972 253.082 10.975 251.947 11.3306 251.002C11.6861 250.057 12.2026 249.336 12.8799 248.838C13.5572 248.34 14.3615 248.091 15.2928 248.091C16.2241 248.091 17.0284 248.34 17.7057 248.838C18.383 249.336 18.8994 250.057 19.255 251.002C19.6106 251.947 19.7884 253.082 19.7884 254.405C19.7884 255.741 19.6106 256.881 19.255 257.826C18.9051 258.77 18.3914 259.489 17.7141 259.981C17.0425 260.474 16.2354 260.72 15.2928 260.72ZM15.2928 259.116C15.8403 259.116 16.3116 258.935 16.7067 258.572C17.1074 258.21 17.4122 257.679 17.621 256.977C17.8298 256.27 17.9314 255.413 17.9258 254.405C17.9258 253.398 17.8214 252.541 17.6125 251.834C17.4037 251.127 17.1017 250.589 16.7067 250.221C16.3116 249.854 15.8403 249.67 15.2928 249.67C14.7453 249.67 14.274 249.854 13.8789 250.221C13.4838 250.589 13.179 251.127 12.9645 251.834C12.7501 252.541 12.6428 253.398 12.6428 254.405C12.6428 255.413 12.7472 256.27 12.9561 256.977C13.1649 257.679 13.4697 258.21 13.8704 258.572C14.2712 258.935 14.7453 259.116 15.2928 259.116Z" fill="black"/>
<path d="M48.9577 259.192L53.2163 254.889C53.7299 254.357 54.125 253.927 54.4016 253.599C54.6781 253.271 54.8842 252.949 55.0196 252.632C55.1607 252.309 55.2313 251.975 55.2313 251.63C55.2313 251.24 55.1325 250.895 54.935 250.595C54.7374 250.295 54.4665 250.063 54.1222 249.899C53.7779 249.735 53.3913 249.653 52.9623 249.653C52.5164 249.653 52.1241 249.743 51.7855 249.924C51.4525 250.1 51.1928 250.354 51.0066 250.688C50.826 251.016 50.7357 251.395 50.7357 251.825H48.9662C48.9662 251.09 49.1384 250.439 49.4827 249.874C49.827 249.308 50.3039 248.869 50.9135 248.558C51.5287 248.247 52.2257 248.091 53.0046 248.091C53.7779 248.091 54.4665 248.244 55.0704 248.55C55.6743 248.849 56.1456 249.265 56.4843 249.797C56.8286 250.323 57.0007 250.915 57.0007 251.571C57.0007 252.04 56.9133 252.493 56.7383 252.929C56.5633 253.364 56.267 253.845 55.8493 254.372C55.4316 254.898 54.8334 255.546 54.0545 256.315L51.5569 258.853V258.946H57.2039V260.55H48.9662L48.9577 259.192Z" fill="black"/>
<path d="M63.9346 260.55H62.0551V250.137H61.9874L59.0665 252.055V250.264L62.1059 248.261H63.9346V260.55Z" fill="black"/>
<path d="M94.4755 259.192L98.7341 254.889C99.2477 254.357 99.6428 253.927 99.9194 253.599C100.196 253.271 100.402 252.949 100.537 252.632C100.679 252.309 100.749 251.975 100.749 251.63C100.749 251.24 100.65 250.895 100.453 250.595C100.255 250.295 99.9843 250.063 99.64 249.899C99.2957 249.735 98.909 249.653 98.4801 249.653C98.0342 249.653 97.6419 249.743 97.3033 249.924C96.9703 250.1 96.7106 250.354 96.5244 250.688C96.3438 251.016 96.2535 251.395 96.2535 251.825H94.484C94.484 251.09 94.6561 250.439 95.0004 249.874C95.3447 249.308 95.8217 248.869 96.4313 248.558C97.0465 248.247 97.7435 248.091 98.5224 248.091C99.2957 248.091 99.9843 248.244 100.588 248.55C101.192 248.849 101.663 249.265 102.002 249.797C102.346 250.323 102.519 250.915 102.519 251.571C102.519 252.04 102.431 252.493 102.256 252.929C102.081 253.364 101.785 253.845 101.367 254.372C100.949 254.898 100.351 255.546 99.5723 256.315L97.0747 258.853V258.946H102.722V260.55H94.484L94.4755 259.192Z" fill="black"/>
<path d="M104.787 259.192L109.046 254.889C109.56 254.357 109.955 253.927 110.231 253.599C110.508 253.271 110.714 252.949 110.849 252.632C110.99 252.309 111.061 251.975 111.061 251.63C111.061 251.24 110.962 250.895 110.765 250.595C110.567 250.295 110.296 250.063 109.952 249.899C109.608 249.735 109.221 249.653 108.792 249.653C108.346 249.653 107.954 249.743 107.615 249.924C107.282 250.1 107.023 250.354 106.836 250.688C106.656 251.016 106.565 251.395 106.565 251.825H104.796C104.796 251.09 104.968 250.439 105.312 249.874C105.657 249.308 106.134 248.869 106.743 248.558C107.358 248.247 108.055 248.091 108.834 248.091C109.608 248.091 110.296 248.244 110.9 248.55C111.504 248.849 111.975 249.265 112.314 249.797C112.658 250.323 112.83 250.915 112.83 251.571C112.83 252.04 112.743 252.493 112.568 252.929C112.393 253.364 112.097 253.845 111.679 254.372C111.261 254.898 110.663 255.546 109.884 256.315L107.387 258.853V258.946H113.034V260.55H104.796L104.787 259.192Z" fill="black"/>
<path d="M141.001 259.192L145.259 254.889C145.773 254.357 146.168 253.927 146.445 253.599C146.721 253.271 146.927 252.949 147.063 252.632C147.204 252.309 147.274 251.975 147.274 251.63C147.274 251.24 147.176 250.895 146.978 250.595C146.78 250.295 146.51 250.063 146.165 249.899C145.821 249.735 145.434 249.653 145.005 249.653C144.559 249.653 144.167 249.743 143.829 249.924C143.496 250.1 143.236 250.354 143.05 250.688C142.869 251.016 142.779 251.395 142.779 251.825H141.009C141.009 251.09 141.181 250.439 141.526 249.874C141.87 249.308 142.347 248.869 142.957 248.558C143.572 248.247 144.269 248.091 145.048 248.091C145.821 248.091 146.51 248.244 147.113 248.55C147.717 248.849 148.189 249.265 148.527 249.797C148.872 250.323 149.044 250.915 149.044 251.571C149.044 252.04 148.956 252.493 148.781 252.929C148.606 253.364 148.31 253.845 147.892 254.372C147.475 254.898 146.876 255.546 146.098 256.315L143.6 258.853V258.946H149.247V260.55H141.009L141.001 259.192Z" fill="black"/>
<path d="M155.664 260.72C154.835 260.72 154.09 260.578 153.429 260.295C152.769 260.012 152.25 259.616 151.872 259.107C151.493 258.592 151.29 258.001 151.262 257.333H153.141C153.17 257.679 153.297 257.987 153.522 258.258C153.748 258.53 154.047 258.739 154.42 258.886C154.792 259.034 155.204 259.107 155.656 259.107C156.141 259.107 156.582 259.022 156.977 258.853C157.372 258.677 157.677 258.442 157.891 258.148C158.106 257.848 158.213 257.503 158.213 257.113C158.213 256.7 158.106 256.335 157.891 256.018C157.677 255.701 157.361 255.455 156.943 255.28C156.531 255.104 156.034 255.017 155.453 255.017H154.403V253.497H155.453C155.916 253.497 156.328 253.415 156.689 253.251C157.05 253.087 157.329 252.858 157.527 252.564C157.725 252.27 157.821 251.93 157.815 251.545C157.821 251.172 157.736 250.841 157.561 250.552C157.386 250.264 157.138 250.043 156.816 249.89C156.494 249.732 156.122 249.653 155.698 249.653C155.281 249.653 154.894 249.726 154.538 249.874C154.183 250.021 153.892 250.23 153.666 250.502C153.446 250.773 153.328 251.093 153.311 251.461H151.516C151.544 250.804 151.745 250.221 152.117 249.712C152.495 249.197 152.998 248.799 153.624 248.516C154.256 248.233 154.95 248.091 155.707 248.091C156.491 248.091 157.18 248.241 157.773 248.541C158.371 248.835 158.831 249.237 159.153 249.746C159.474 250.255 159.63 250.818 159.618 251.435C159.63 251.888 159.545 252.304 159.364 252.683C159.189 253.056 158.935 253.37 158.602 253.625C158.275 253.874 157.891 254.052 157.451 254.159V254.253C158.004 254.326 158.478 254.499 158.873 254.77C159.274 255.036 159.579 255.373 159.788 255.78C159.996 256.188 160.095 256.652 160.084 257.172C160.095 257.84 159.909 258.445 159.525 258.988C159.141 259.526 158.611 259.95 157.933 260.261C157.256 260.567 156.5 260.72 155.664 260.72Z" fill="black"/>
<path d="M187.839 259.192L192.098 254.889C192.612 254.357 193.007 253.927 193.283 253.599C193.56 253.271 193.766 252.949 193.901 252.632C194.042 252.309 194.113 251.975 194.113 251.63C194.113 251.24 194.014 250.895 193.817 250.595C193.619 250.295 193.348 250.063 193.004 249.899C192.659 249.735 192.273 249.653 191.844 249.653C191.398 249.653 191.006 249.743 190.667 249.924C190.334 250.1 190.074 250.354 189.888 250.688C189.708 251.016 189.617 251.395 189.617 251.825H187.848C187.848 251.09 188.02 250.439 188.364 249.874C188.709 249.308 189.185 248.869 189.795 248.558C190.41 248.247 191.107 248.091 191.886 248.091C192.66 248.091 193.348 248.244 193.952 248.55C194.556 248.849 195.027 249.265 195.366 249.797C195.71 250.323 195.882 250.915 195.882 251.571C195.882 252.04 195.795 252.493 195.62 252.929C195.445 253.364 195.149 253.845 194.731 254.372C194.313 254.898 193.715 255.546 192.936 256.315L190.438 258.853V258.946H196.086V260.55H187.848L187.839 259.192Z" fill="black"/>
<path d="M197.626 256.637L203.028 248.261H204.213V250.485H203.443L199.574 256.468V256.57H207.007V258.148H197.626V256.637ZM203.57 257.698L203.578 257.002V248.261H205.348V260.55H203.57V257.698Z" fill="black"/>
<path d="M234.737 259.192L238.996 254.889C239.509 254.357 239.904 253.927 240.181 253.599C240.458 253.271 240.664 252.949 240.799 252.632C240.94 252.309 241.011 251.975 241.011 251.63C241.011 251.24 240.912 250.895 240.714 250.595C240.517 250.295 240.246 250.063 239.902 249.899C239.557 249.735 239.171 249.653 238.742 249.653C238.296 249.653 237.904 249.743 237.565 249.924C237.232 250.1 236.972 250.354 236.786 250.688C236.605 251.016 236.515 251.395 236.515 251.825H234.746C234.746 251.09 234.918 250.439 235.262 249.874C235.606 249.308 236.083 248.869 236.693 248.558C237.308 248.247 238.005 248.091 238.784 248.091C239.557 248.091 240.246 248.244 240.85 248.55C241.454 248.849 241.925 249.265 242.264 249.797C242.608 250.323 242.78 250.915 242.78 251.571C242.78 252.04 242.693 252.493 242.518 252.929C242.343 253.364 242.046 253.845 241.629 254.372C241.211 254.898 240.613 255.546 239.834 256.315L237.336 258.853V258.946H242.983V260.55H234.746L234.737 259.192Z" fill="black"/>
<path d="M249.231 260.72C248.469 260.72 247.775 260.575 247.149 260.287C246.528 259.993 246.034 259.588 245.667 259.073C245.306 258.558 245.111 257.978 245.083 257.333H246.886C246.926 257.684 247.053 257.995 247.267 258.267C247.487 258.539 247.767 258.756 248.105 258.92C248.45 259.079 248.825 259.158 249.231 259.158C249.717 259.158 250.151 259.048 250.535 258.827C250.925 258.606 251.229 258.304 251.45 257.919C251.67 257.529 251.78 257.096 251.78 256.621C251.78 256.117 251.667 255.673 251.441 255.288C251.221 254.898 250.908 254.589 250.501 254.363C250.101 254.137 249.649 254.024 249.147 254.024C248.639 254.012 248.204 254.094 247.843 254.27C247.482 254.445 247.197 254.722 246.988 255.101H245.235L246.031 248.261H252.974V249.865H247.581L247.157 253.294H247.267C247.538 253.05 247.877 252.852 248.283 252.7C248.695 252.547 249.127 252.47 249.579 252.47C250.341 252.47 251.026 252.646 251.636 252.997C252.251 253.342 252.731 253.828 253.075 254.456C253.425 255.079 253.597 255.783 253.592 256.57C253.597 257.362 253.411 258.075 253.033 258.708C252.66 259.336 252.141 259.829 251.475 260.185C250.815 260.541 250.067 260.72 249.231 260.72Z" fill="black"/>
<path d="M281.381 259.192L285.639 254.889C286.153 254.357 286.548 253.927 286.825 253.599C287.101 253.271 287.307 252.949 287.443 252.632C287.584 252.309 287.654 251.975 287.654 251.63C287.654 251.24 287.556 250.895 287.358 250.595C287.161 250.295 286.89 250.063 286.545 249.899C286.201 249.735 285.814 249.653 285.385 249.653C284.94 249.653 284.547 249.743 284.209 249.924C283.876 250.1 283.616 250.354 283.43 250.688C283.249 251.016 283.159 251.395 283.159 251.825H281.389C281.389 251.09 281.562 250.439 281.906 249.874C282.25 249.308 282.727 248.869 283.337 248.558C283.952 248.247 284.649 248.091 285.428 248.091C286.201 248.091 286.89 248.244 287.494 248.55C288.098 248.849 288.569 249.265 288.908 249.797C289.252 250.323 289.424 250.915 289.424 251.571C289.424 252.04 289.336 252.493 289.161 252.929C288.987 253.364 288.69 253.845 288.273 254.372C287.855 254.898 287.257 255.546 286.478 256.315L283.98 258.853V258.946H289.627V260.55H281.389L281.381 259.192Z" fill="black"/>
<path d="M296.138 260.72C295.308 260.708 294.546 260.516 293.852 260.143C293.163 259.769 292.599 259.144 292.159 258.267C291.724 257.39 291.507 256.239 291.507 254.813C291.507 253.404 291.701 252.196 292.091 251.189C292.48 250.176 293.033 249.407 293.75 248.881C294.467 248.354 295.314 248.091 296.29 248.091C297.035 248.091 297.698 248.236 298.28 248.524C298.867 248.807 299.344 249.203 299.71 249.712C300.083 250.221 300.317 250.804 300.413 251.461H298.568C298.477 251.115 298.33 250.813 298.127 250.552C297.93 250.287 297.676 250.083 297.365 249.941C297.055 249.8 296.696 249.729 296.29 249.729C295.664 249.729 295.127 249.905 294.682 250.255C294.236 250.601 293.894 251.104 293.657 251.766C293.42 252.428 293.299 253.223 293.293 254.151H293.429C293.654 253.806 293.925 253.509 294.241 253.26C294.563 253.011 294.924 252.821 295.325 252.691C295.726 252.555 296.143 252.487 296.578 252.487C297.3 252.487 297.964 252.663 298.568 253.014C299.177 253.359 299.654 253.837 299.998 254.448C300.348 255.059 300.523 255.752 300.523 256.527C300.523 257.319 300.34 258.035 299.973 258.674C299.606 259.314 299.09 259.814 298.424 260.176C297.758 260.539 296.996 260.72 296.138 260.72ZM296.129 259.158C296.615 259.158 297.052 259.042 297.442 258.81C297.837 258.578 298.147 258.264 298.373 257.868C298.604 257.466 298.72 257.034 298.72 256.57C298.72 256.089 298.61 255.653 298.39 255.263C298.17 254.872 297.865 254.567 297.475 254.346C297.086 254.12 296.646 254.007 296.155 254.007C295.675 254.007 295.235 254.125 294.834 254.363C294.433 254.595 294.114 254.909 293.877 255.305C293.646 255.695 293.524 256.12 293.513 256.578C293.519 257.025 293.634 257.447 293.86 257.843C294.092 258.239 294.405 258.558 294.8 258.802C295.195 259.039 295.638 259.158 296.129 259.158Z" fill="black"/>
<path d="M1.20486 307.472L5.46341 303.17C5.97703 302.638 6.37212 302.208 6.64869 301.88C6.92525 301.551 7.13127 301.229 7.26673 300.912C7.40784 300.59 7.47839 300.256 7.47839 299.911C7.47839 299.52 7.37962 299.175 7.18207 298.875C6.98452 298.575 6.7136 298.343 6.3693 298.179C6.02501 298.015 5.63838 297.933 5.20942 297.933C4.76353 297.933 4.37125 298.024 4.0326 298.205C3.69959 298.38 3.43996 298.635 3.2537 298.969C3.07309 299.297 2.98278 299.676 2.98278 300.106H1.21333C1.21333 299.37 1.38547 298.72 1.72977 298.154C2.07406 297.588 2.551 297.15 3.16057 296.838C3.77579 296.527 4.47285 296.372 5.25175 296.372C6.02501 296.372 6.7136 296.524 7.31753 296.83C7.92146 297.13 8.39275 297.546 8.7314 298.078C9.0757 298.604 9.24784 299.195 9.24784 299.851C9.24784 300.321 9.16036 300.773 8.98539 301.209C8.81042 301.645 8.5141 302.126 8.09643 302.652C7.67876 303.178 7.08047 303.826 6.30157 304.595L3.80401 307.133V307.226H9.45104V308.83H1.21333L1.20486 307.472Z" fill="black"/>
<path d="M17.4178 298.23V298.145H11.0935V296.541H19.3481V298.205L13.8874 308.83H11.9486L17.4178 298.23Z" fill="black"/>
<path d="M47.4846 307.472L51.7431 303.17C52.2568 302.638 52.6519 302.208 52.9284 301.88C53.205 301.551 53.411 301.229 53.5465 300.912C53.6876 300.59 53.7581 300.256 53.7581 299.911C53.7581 299.52 53.6593 299.175 53.4618 298.875C53.2643 298.575 52.9933 298.343 52.649 298.179C52.3047 298.015 51.9181 297.933 51.4892 297.933C51.0433 297.933 50.651 298.024 50.3123 298.205C49.9793 298.38 49.7197 298.635 49.5334 298.969C49.3528 299.297 49.2625 299.676 49.2625 300.106H47.4931C47.4931 299.37 47.6652 298.72 48.0095 298.154C48.3538 297.588 48.8307 297.15 49.4403 296.838C50.0555 296.527 50.7526 296.372 51.5315 296.372C52.3047 296.372 52.9933 296.524 53.5973 296.83C54.2012 297.13 54.6725 297.546 55.0111 298.078C55.3554 298.604 55.5276 299.195 55.5276 299.851C55.5276 300.321 55.4401 300.773 55.2651 301.209C55.0902 301.645 54.7938 302.126 54.3762 302.652C53.9585 303.178 53.3602 303.826 52.5813 304.595L50.0838 307.133V307.226H55.7308V308.83H47.4931L47.4846 307.472Z" fill="black"/>
<path d="M62.0805 309C61.2113 309 60.4324 308.853 59.7438 308.559C59.0609 308.259 58.5275 307.849 58.1437 307.328C57.7655 306.802 57.5764 306.211 57.5764 305.554C57.5764 305.039 57.6865 304.559 57.9066 304.112C58.1324 303.665 58.44 303.297 58.8294 303.008C59.2245 302.714 59.6591 302.533 60.1332 302.465V302.389C59.7269 302.293 59.3656 302.114 59.0496 301.854C58.7335 301.594 58.4851 301.271 58.3045 300.887C58.1296 300.502 58.0421 300.089 58.0421 299.648C58.0421 299.025 58.217 298.465 58.567 297.967C58.9226 297.464 59.4051 297.073 60.0147 296.796C60.6299 296.513 61.3185 296.372 62.0805 296.372C62.8425 296.372 63.5311 296.513 64.1463 296.796C64.7615 297.073 65.2441 297.464 65.594 297.967C65.9496 298.465 66.1274 299.025 66.1274 299.648C66.1274 300.089 66.0343 300.502 65.848 300.887C65.6674 301.271 65.419 301.594 65.103 301.854C64.7925 302.114 64.4313 302.293 64.0193 302.389V302.465C64.499 302.533 64.9308 302.714 65.3146 303.008C65.7041 303.297 66.0145 303.665 66.2459 304.112C66.4773 304.559 66.593 305.039 66.593 305.554C66.593 306.211 66.3983 306.802 66.0089 307.328C65.6251 307.849 65.0917 308.259 64.4087 308.559C63.7258 308.853 62.9497 309 62.0805 309ZM62.0805 307.455C62.6054 307.455 63.0654 307.371 63.4605 307.201C63.8556 307.031 64.1604 306.791 64.3749 306.479C64.5893 306.168 64.6966 305.815 64.6966 305.419C64.6966 304.994 64.5837 304.618 64.3579 304.29C64.1322 303.956 63.8189 303.696 63.4182 303.509C63.0231 303.317 62.5772 303.22 62.0805 303.22C61.5838 303.22 61.1351 303.317 60.7344 303.509C60.3336 303.696 60.0204 303.956 59.7946 304.29C59.5745 304.618 59.47 304.994 59.4813 305.419C59.47 305.815 59.5716 306.168 59.7861 306.479C60.0006 306.791 60.3054 307.031 60.7005 307.201C61.0956 307.371 61.5556 307.455 62.0805 307.455ZM62.0805 301.761C62.5038 301.761 62.8848 301.679 63.2234 301.515C63.5677 301.351 63.833 301.121 64.0193 300.827C64.2055 300.527 64.2987 300.191 64.2987 299.817C64.2987 299.438 64.2055 299.104 64.0193 298.816C63.8387 298.522 63.579 298.295 63.2404 298.137C62.9017 297.978 62.5151 297.899 62.0805 297.899C61.6459 297.899 61.2564 297.978 60.9121 298.137C60.5735 298.295 60.311 298.522 60.1248 298.816C59.9442 299.104 59.8539 299.438 59.8539 299.817C59.8539 300.191 59.9498 300.527 60.1417 300.827C60.3393 301.121 60.6045 301.351 60.9375 301.515C61.2706 301.679 61.6515 301.761 62.0805 301.761Z" fill="black"/>
<path d="M94.23 307.472L98.4885 303.17C99.0022 302.638 99.3973 302.208 99.6738 301.88C99.9504 301.551 100.156 301.229 100.292 300.912C100.433 300.59 100.504 300.256 100.504 299.911C100.504 299.52 100.405 299.175 100.207 298.875C100.01 298.575 99.7387 298.343 99.3944 298.179C99.0501 298.015 98.6635 297.933 98.2346 297.933C97.7887 297.933 97.3964 298.024 97.0577 298.205C96.7247 298.38 96.4651 298.635 96.2788 298.969C96.0982 299.297 96.0079 299.676 96.0079 300.106H94.2385C94.2385 299.37 94.4106 298.72 94.7549 298.154C95.0992 297.588 95.5761 297.15 96.1857 296.838C96.8009 296.527 97.498 296.372 98.2769 296.372C99.0501 296.372 99.7387 296.524 100.343 296.83C100.947 297.13 101.418 297.546 101.757 298.078C102.101 298.604 102.273 299.195 102.273 299.851C102.273 300.321 102.186 300.773 102.011 301.209C101.836 301.645 101.539 302.126 101.122 302.652C100.704 303.178 100.106 303.826 99.3267 304.595L96.8291 307.133V307.226H102.476V308.83H94.2385L94.23 307.472Z" fill="black"/>
<path d="M108.767 296.372C109.596 296.372 110.355 296.558 111.044 296.932C111.738 297.305 112.303 297.93 112.737 298.807C113.172 299.679 113.389 300.827 113.389 302.253C113.389 303.667 113.195 304.881 112.805 305.894C112.421 306.901 111.868 307.67 111.146 308.202C110.429 308.734 109.579 309 108.597 309C107.864 309 107.203 308.856 106.616 308.567C106.029 308.273 105.549 307.871 105.177 307.362C104.804 306.853 104.57 306.267 104.474 305.605H106.32C106.405 305.956 106.548 306.264 106.752 306.53C106.955 306.791 107.212 306.994 107.522 307.141C107.838 307.288 108.197 307.362 108.597 307.362C109.224 307.362 109.763 307.187 110.214 306.836C110.666 306.479 111.01 305.967 111.247 305.3C111.49 304.632 111.611 303.832 111.611 302.898H111.459C111.239 303.243 110.968 303.54 110.646 303.789C110.324 304.038 109.966 304.23 109.571 304.366C109.176 304.496 108.761 304.561 108.326 304.561C107.604 304.561 106.938 304.389 106.328 304.044C105.724 303.693 105.247 303.212 104.898 302.601C104.548 301.99 104.37 301.303 104.364 300.539C104.364 299.752 104.548 299.042 104.914 298.408C105.281 297.775 105.798 297.274 106.464 296.906C107.135 296.539 107.903 296.36 108.767 296.372ZM108.775 297.933C108.29 297.933 107.849 298.049 107.454 298.281C107.059 298.513 106.749 298.827 106.523 299.223C106.297 299.614 106.184 300.041 106.184 300.505C106.19 300.969 106.303 301.396 106.523 301.786C106.743 302.177 107.045 302.485 107.429 302.711C107.818 302.938 108.253 303.051 108.733 303.051C109.213 303.051 109.653 302.932 110.054 302.694C110.46 302.451 110.779 302.131 111.01 301.735C111.247 301.339 111.366 300.921 111.366 300.479C111.366 300.032 111.253 299.614 111.027 299.223C110.801 298.833 110.491 298.522 110.096 298.29C109.706 298.052 109.266 297.933 108.775 297.933Z" fill="black"/>
<path d="M145.158 309C144.328 309 143.583 308.859 142.923 308.576C142.262 308.293 141.743 307.897 141.365 307.388C140.987 306.873 140.783 306.281 140.755 305.614H142.635C142.663 305.959 142.79 306.267 143.016 306.539C143.242 306.81 143.541 307.02 143.913 307.167C144.286 307.314 144.698 307.388 145.149 307.388C145.635 307.388 146.075 307.303 146.47 307.133C146.865 306.958 147.17 306.723 147.384 306.428C147.599 306.129 147.706 305.783 147.706 305.393C147.706 304.98 147.599 304.615 147.384 304.298C147.17 303.981 146.854 303.735 146.436 303.56C146.024 303.385 145.527 303.297 144.946 303.297H143.896V301.778H144.946C145.409 301.778 145.821 301.696 146.182 301.532C146.543 301.368 146.823 301.138 147.02 300.844C147.218 300.55 147.314 300.211 147.308 299.826C147.314 299.452 147.229 299.121 147.054 298.833C146.879 298.544 146.631 298.324 146.309 298.171C145.987 298.012 145.615 297.933 145.192 297.933C144.774 297.933 144.387 298.007 144.032 298.154C143.676 298.301 143.385 298.51 143.16 298.782C142.94 299.053 142.821 299.373 142.804 299.741H141.009C141.037 299.085 141.238 298.502 141.61 297.993C141.989 297.478 142.491 297.079 143.117 296.796C143.75 296.513 144.444 296.372 145.2 296.372C145.985 296.372 146.673 296.522 147.266 296.821C147.864 297.116 148.324 297.517 148.646 298.027C148.968 298.536 149.123 299.099 149.112 299.715C149.123 300.168 149.038 300.584 148.858 300.963C148.683 301.336 148.429 301.65 148.096 301.905C147.768 302.154 147.384 302.332 146.944 302.44V302.533C147.497 302.607 147.971 302.779 148.366 303.051C148.767 303.317 149.072 303.653 149.281 304.061C149.49 304.468 149.588 304.932 149.577 305.453C149.588 306.12 149.402 306.726 149.018 307.269C148.635 307.806 148.104 308.231 147.427 308.542C146.749 308.847 145.993 309 145.158 309Z" fill="black"/>
<path d="M155.918 309C154.976 309 154.169 308.754 153.497 308.262C152.825 307.769 152.312 307.051 151.956 306.106C151.601 305.161 151.423 304.021 151.423 302.686C151.423 301.362 151.601 300.227 151.956 299.283C152.312 298.338 152.828 297.616 153.506 297.118C154.183 296.621 154.987 296.372 155.918 296.372C156.85 296.372 157.654 296.621 158.331 297.118C159.009 297.616 159.525 298.338 159.881 299.283C160.236 300.227 160.414 301.362 160.414 302.686C160.414 304.021 160.236 305.161 159.881 306.106C159.531 307.051 159.017 307.769 158.34 308.262C157.668 308.754 156.861 309 155.918 309ZM155.918 307.396C156.466 307.396 156.937 307.215 157.332 306.853C157.733 306.491 158.038 305.959 158.247 305.257C158.455 304.55 158.557 303.693 158.551 302.686C158.551 301.679 158.447 300.822 158.238 300.114C158.029 299.407 157.727 298.87 157.332 298.502C156.937 298.134 156.466 297.95 155.918 297.95C155.371 297.95 154.9 298.134 154.505 298.502C154.109 298.87 153.805 299.407 153.59 300.114C153.376 300.822 153.268 301.679 153.268 302.686C153.268 303.693 153.373 304.55 153.582 305.257C153.791 305.959 154.095 306.491 154.496 306.853C154.897 307.215 155.371 307.396 155.918 307.396Z" fill="black"/>
<path d="M199.142 308.83H197.262V298.417H197.195L194.274 300.335V298.544L197.313 296.541H199.142V308.83Z" fill="#C2C2CD"/>
<path d="M239.995 307.472L244.253 303.17C244.767 302.638 245.162 302.208 245.439 301.88C245.715 301.551 245.921 301.229 246.057 300.912C246.198 300.59 246.268 300.256 246.268 299.911C246.268 299.52 246.169 299.175 245.972 298.875C245.774 298.575 245.503 298.343 245.159 298.179C244.815 298.015 244.428 297.933 243.999 297.933C243.553 297.933 243.161 298.024 242.822 298.205C242.489 298.38 242.23 298.635 242.044 298.969C241.863 299.297 241.773 299.676 241.773 300.106H240.003C240.003 299.37 240.175 298.72 240.52 298.154C240.864 297.588 241.341 297.15 241.95 296.838C242.566 296.527 243.263 296.372 244.042 296.372C244.815 296.372 245.503 296.524 246.107 296.83C246.711 297.13 247.183 297.546 247.521 298.078C247.866 298.604 248.038 299.195 248.038 299.851C248.038 300.321 247.95 300.773 247.775 301.209C247.6 301.645 247.304 302.126 246.886 302.652C246.469 303.178 245.87 303.826 245.091 304.595L242.594 307.133V307.226H248.241V308.83H240.003L239.995 307.472Z" fill="#C2C2CD"/>
<path d="M290.872 309C290.042 309 289.297 308.859 288.637 308.576C287.976 308.293 287.457 307.897 287.079 307.388C286.701 306.873 286.497 306.281 286.469 305.614H288.349C288.377 305.959 288.504 306.267 288.73 306.539C288.955 306.81 289.255 307.02 289.627 307.167C290 307.314 290.412 307.388 290.863 307.388C291.349 307.388 291.789 307.303 292.184 307.133C292.579 306.958 292.884 306.723 293.098 306.428C293.313 306.129 293.42 305.783 293.42 305.393C293.42 304.98 293.313 304.615 293.098 304.298C292.884 303.981 292.568 303.735 292.15 303.56C291.738 303.385 291.241 303.297 290.66 303.297H289.61V301.778H290.66C291.123 301.778 291.535 301.696 291.896 301.532C292.257 301.368 292.537 301.138 292.734 300.844C292.932 300.55 293.028 300.211 293.022 299.826C293.028 299.452 292.943 299.121 292.768 298.833C292.593 298.544 292.345 298.324 292.023 298.171C291.701 298.012 291.329 297.933 290.906 297.933C290.488 297.933 290.101 298.007 289.746 298.154C289.39 298.301 289.099 298.51 288.874 298.782C288.653 299.053 288.535 299.373 288.518 299.741H286.723C286.751 299.085 286.952 298.502 287.324 297.993C287.702 297.478 288.205 297.079 288.831 296.796C289.463 296.513 290.158 296.372 290.914 296.372C291.699 296.372 292.387 296.522 292.98 296.821C293.578 297.116 294.038 297.517 294.36 298.027C294.681 298.536 294.837 299.099 294.825 299.715C294.837 300.168 294.752 300.584 294.571 300.963C294.396 301.336 294.142 301.65 293.809 301.905C293.482 302.154 293.098 302.332 292.658 302.44V302.533C293.211 302.607 293.685 302.779 294.08 303.051C294.481 303.317 294.786 303.653 294.995 304.061C295.204 304.468 295.302 304.932 295.291 305.453C295.302 306.12 295.116 306.726 294.732 307.269C294.348 307.806 293.818 308.231 293.141 308.542C292.463 308.847 291.707 309 290.872 309Z" fill="#C2C2CD"/>
<path d="M290.457 2.04996C290.833 1.67286 291.443 1.67286 291.82 2.04996L297.599 7.8436C297.975 8.22069 297.975 8.83208 297.599 9.20918L291.82 15.0028C291.443 15.3799 290.833 15.3799 290.457 15.0028C290.081 14.6257 290.081 14.0143 290.457 13.6372L295.556 8.52639L290.457 3.41553C290.081 3.03844 290.081 2.42705 290.457 2.04996Z" fill="#C2C2CD"/>
<path d="M13.4326 2.04996C13.0564 1.67286 12.4465 1.67286 12.0703 2.04996L6.29061 7.8436C5.91443 8.22069 5.91443 8.83208 6.29061 9.20918L12.0703 15.0028C12.4465 15.3799 13.0564 15.3799 13.4326 15.0028C13.8087 14.6257 13.8087 14.0143 13.4326 13.6372L8.33403 8.52639L13.4326 3.41553C13.8087 3.03844 13.8087 2.42705 13.4326 2.04996Z" fill="#C2C2CD"/>
</svg>
