<svg width="37" height="37" viewBox="0 0 37 37" fill="none" xmlns="http://www.w3.org/2000/svg">
<g id="Vector">
<g id="Vector_2">
<path d="M36 18.5C36 28.165 28.165 36 18.5 36C8.83502 36 1 28.165 1 18.5C1 8.83502 8.83502 1 18.5 1C28.165 1 36 8.83502 36 18.5Z" fill="white" fill-opacity="0.98"/>
<path d="M10.0501 22C9.97777 21.4525 10.4324 21.0023 10.9847 21.0023H25.9847C26.537 21.0023 26.9916 21.4525 26.9192 22C26.3975 25.9474 22.8201 30.0023 18.4847 30.0023C14.1492 30.0023 10.5719 25.9474 10.0501 22Z" fill="#FF8364"/>
<path fill-rule="evenodd" clip-rule="evenodd" d="M18.5 0C8.28273 0 0 8.28273 0 18.5C0 28.7173 8.28273 37 18.5 37C28.7173 37 37 28.7173 37 18.5C37 8.28273 28.7173 0 18.5 0ZM2 18.5C2 9.3873 9.3873 2 18.5 2C27.6127 2 35 9.3873 35 18.5C35 27.6127 27.6127 35 18.5 35C9.3873 35 2 27.6127 2 18.5Z" fill="#FF8364"/>
<path d="M14 14C14 14.5523 13.5523 15 13 15C12.4477 15 12 14.5523 12 14C12 13.4477 12.4477 13 13 13C13.5523 13 14 13.4477 14 14Z" fill="#FF8364"/>
<path d="M25 14C25 14.5523 24.5523 15 24 15C23.4477 15 23 14.5523 23 14C23 13.4477 23.4477 13 24 13C24.5523 13 25 13.4477 25 14Z" fill="#FF8364"/>
</g>
</g>
</svg>
