<svg width="22" height="23" viewBox="0 0 22 23" fill="none" xmlns="http://www.w3.org/2000/svg">
<g id="info">
<path id="Vector" fill-rule="evenodd" clip-rule="evenodd" d="M11 2.5C6.02944 2.5 2 6.52944 2 11.5C2 16.4706 6.02944 20.5 11 20.5C15.9706 20.5 20 16.4706 20 11.5C20 6.52944 15.9706 2.5 11 2.5ZM0 11.5C0 5.42487 4.92487 0.5 11 0.5C17.0751 0.5 22 5.42487 22 11.5C22 17.5751 17.0751 22.5 11 22.5C4.92487 22.5 0 17.5751 0 11.5ZM11 10.5C11.5523 10.5 12 10.9477 12 11.5V15.5C12 16.0523 11.5523 16.5 11 16.5C10.4477 16.5 10 16.0523 10 15.5V11.5C10 10.9477 10.4477 10.5 11 10.5ZM11 6.5C10.4477 6.5 10 6.94772 10 7.5C10 8.05228 10.4477 8.5 11 8.5H11.01C11.5623 8.5 12.01 8.05228 12.01 7.5C12.01 6.94772 11.5623 6.5 11.01 6.5H11Z" fill="white"/>
</g>
</svg>
